<svg xmlns="http://www.w3.org/2000/svg" width="408.64" height="2.64in" class="st9" color-interpolation-filters="sRGB" viewBox="0 0 306.48 190.08" xml:space="preserve"><style type="text/css">.st1{fill:#f4f7f0;stroke:#000;stroke-linecap:round;stroke-linejoin:round;stroke-width:.24}.st2{fill:#000;font-family:Arial;font-size:.833336em}.st3{fill:#ecefe2;stroke:#000;stroke-linecap:round;stroke-linejoin:round;stroke-width:.24}.st4{visibility:visible}.st5,.st6{fill:#84877b;stroke:#84877b;stroke-linecap:round;stroke-linejoin:round;stroke-width:.24}.st6{fill:#dde2cd;stroke:#000}.st7{fill:#000;font-family:Arial;font-size:.75em}.st8{font-size:1em}.st9{fill:none;fill-rule:evenodd;font-size:12;overflow:visible;stroke-linecap:square;stroke-miterlimit:3}</style><g><title>Page-1</title><g id="shape1-1" transform="translate(0.24012,-0.24)"><title>Box.1</title><desc>Application Server (e.g. JBoss, WebLogic)</desc><rect width="306" height="170.916" x="0" y="19.164" class="st1"/><text x="59.35" y="185.62" class="st2">Application Server (e.g. JBoss, WebLogic)</text></g><g id="shape2-4" transform="translate(30.1749,-23.3831)"><title>Box.2</title><desc>Spring Core</desc><rect width="99.783" height="61.148" x="0" y="128.932" class="st3"/><text x="4" y="174.51" class="st2">Spring Core</text></g><g id="shape3-7" transform="translate(161.223,-89.6263)"><title>Box.3</title><desc>Spring Context</desc><rect width="103.774" height="61.148" x="0" y="128.932" class="st3"/><text x="33.65" y="174.51" class="st2">Spring Context</text></g><g id="shape4-10" transform="translate(6.89229,-150.773)"><title>Box</title><desc>EJB Access layer using SlsbInvokers</desc><g id="shadow4-11" class="st4" transform="matrix(1,0,0,1,1.8,1.8)"><rect width="139.696" height="39.066" x="0" y="151.014" class="st5"/></g><rect width="139.696" height="39.066" x="0" y="151.014" class="st6"/><text x="22.83" y="167.85" class="st7">EJB Access layer using <tspan x="44.09" class="st8" dy="1.2em">SlsbInvokers</tspan></text></g><g id="shape5-16" transform="translate(161.888,-23.3831)"><title>Box.4</title><desc>Spring DAO</desc><rect width="102.443" height="61.148" x="0" y="128.932" class="st3"/><text x="45.09" y="174.51" class="st2">Spring DAO</text></g><g id="shape6-19" transform="translate(26.5572,-60.768)"><title>Box.5</title><desc>Spring-managed EJBs (using AbstractEnterpriseBean</desc><g id="shadow6-20" class="st4" transform="matrix(1,0,0,1,1.8,1.8)"><rect width="162.313" height="81.53" x="0" y="108.55" class="st5"/></g><rect width="162.313" height="81.53" x="0" y="108.55" class="st6"/><text x="36.12" y="152.02" class="st7">Spring-managed EJBs</text></g></g></svg>