<svg xmlns="http://www.w3.org/2000/svg" width="477.28" height="345.598" class="st9" color-interpolation-filters="sRGB" viewBox="0 0 357.96 259.199" xml:space="preserve"><style type="text/css">.st1{fill:#f4f7f0;stroke:#000;stroke-linecap:round;stroke-linejoin:round;stroke-width:.24}.st2{fill:#000;font-family:Arial;font-size:.666664em}.st3{fill:#ecefe2;stroke:#000;stroke-linecap:round;stroke-linejoin:round;stroke-width:.24}.st4{visibility:visible}.st5,.st6{fill:#84877b;stroke:#84877b;stroke-linecap:round;stroke-linejoin:round;stroke-width:.24}.st6{fill:#dde2cd;stroke:#000}.st7{fill:#000;font-family:Arial;font-size:.499992em}.st8{font-size:1em}.st9{fill:none;fill-rule:evenodd;font-size:12;overflow:visible;stroke-linecap:square;stroke-miterlimit:3}</style><g><title>Page-1</title><g id="shape1-1" transform="translate(3.12,-11.3134)"><title>Box.1</title><desc>Servlet Container (Tomcat / Jetty)</desc><rect width="352.8" height="236.571" x="0" y="22.627" class="st1"/><text x="116.6" y="248.91" class="st2">Servlet Container (Tomcat / Jetty)</text></g><g id="shape2-4" transform="translate(16.08,-37.4777)"><title>Box.2</title><desc>Spring Core</desc><rect width="163.8" height="38.841" x="0" y="220.357" class="st3"/><text x="60.56" y="246.98" class="st2">Spring Core</text></g><g id="shape3-7" transform="translate(180.24,-37.4777)"><title>Box.3</title><desc>Spring DAO</desc><rect width="163.8" height="38.841" x="0" y="220.357" class="st3"/><text x="60.56" y="246.98" class="st2">Spring DAO</text></g><g id="shape4-10" transform="translate(180.24,-74.7955)"><title>Box.4</title><desc>Spring ORM</desc><rect width="163.8" height="37.607" x="0" y="221.591" class="st3"/><text x="11" y="238" class="st2">Spring ORM</text></g><g id="shape5-13" transform="translate(16.44,-143.999)"><title>Box.5</title><desc>Spring Web</desc><rect width="327.6" height="36" x="0" y="223.199" class="st3"/><text x="142.9" y="243.6" class="st2">Spring Web</text></g><g id="shape7-16" transform="translate(16.26,-74.7955)"><title>Box.7</title><desc>Spring AOP</desc><rect width="163.8" height="37.607" x="0" y="221.591" class="st3"/><text x="4" y="238" class="st2">Spring AOP</text></g><g id="shape9-19" transform="translate(114,-65.4848)"><title>Box</title><desc>Hibernate mappings Custom Hibernate DAOs</desc><g id="shadow9-20" class="st4" transform="matrix(1,0,0,1,1.8,1.8)"><rect width="144.9" height="27.429" x="0" y="231.77" class="st5"/></g><rect width="144.9" height="27.429" x="0" y="231.77" class="st6"/><text x="45.6" y="243.68" class="st7">Hibernate mappings<tspan x="39.44" class="st8" dy="1.2em">Custom Hibernate DAOs</tspan></text></g><g id="shape10-25" transform="translate(16.44,-179.999)"><title>Box.10</title><desc>Spring Web MVC</desc><rect width="327.6" height="26.293" x="0" y="232.906" class="st3"/><text x="132.9" y="248.45" class="st2">Spring Web MVC</text></g><g id="shape6-28" transform="translate(20.4,-211.542)"><title>Box.6</title><desc>Form Controllers handling form interaction</desc><g id="shadow6-29" class="st4" transform="matrix(1,0,0,1,1.8,1.8)"><rect width="72" height="44.777" x="0" y="214.421" class="st5"/></g><rect width="72" height="44.777" x="0" y="214.421" class="st6"/><text x="13.66" y="231.41" class="st7">Form Controllers <tspan x="17.82" class="st8" dy="1.2em">handling form </tspan><tspan x="22.16" class="st8" dy="1.2em">interaction</tspan></text></g><g id="shape11-35" transform="translate(102.48,-211.679)"><title>Box.11</title><desc>Multipart Resolver to handle file uploads</desc><g id="shadow11-36" class="st4" transform="matrix(1,0,0,1,1.8,1.8)"><rect width="72" height="44.777" x="0" y="214.421" class="st5"/></g><rect width="72" height="44.777" x="0" y="214.421" class="st6"/><text x="11.83" y="235.01" class="st7">Multipart Resolver<tspan x="7.65" class="st8" dy="1.2em">to handle file uploads</tspan></text></g><g id="shape12-41" transform="translate(181.68,-211.679)"><title>Box.12</title><desc>Dynamic binding of data to the domain model</desc><g id="shadow12-42" class="st4" transform="matrix(1,0,0,1,1.8,1.8)"><rect width="72" height="44.777" x="0" y="214.421" class="st5"/></g><rect width="72" height="44.777" x="0" y="214.421" class="st6"/><text x="10.49" y="231.41" class="st7">Dynamic binding of <tspan x="11.15" class="st8" dy="1.2em">data to the domain </tspan><tspan x="27.83" class="st8" dy="1.2em">model</tspan></text></g><g id="shape13-48" transform="translate(263.76,-211.679)"><title>Box.13</title><desc>Integration with JSP, FreeMarker, XSLT, PDF, Excel</desc><g id="shadow13-49" class="st4" transform="matrix(1,0,0,1,1.8,1.8)"><rect width="72" height="44.777" x="0" y="214.421" class="st5"/></g><rect width="72" height="44.777" x="0" y="214.421" class="st6"/><text x="8.49" y="231.41" class="st7">Integration with JSP, <tspan x="7.83" class="st8" dy="1.2em">FreeMarker</tspan>, XSLT, PDF, <tspan x="28.66" class="st8" dy="1.2em">Excel</tspan></text></g><g id="shape15-55" transform="translate(16.44,-112.319)"><title>Box.15</title><desc>Spring Context</desc><rect width="327.6" height="31.68" x="0" y="227.519" class="st3"/><text x="137.34" y="245.76" class="st2">Spring Context</text></g><g id="shape8-58" transform="translate(114,-138.239)"><title>Box.8</title><desc>Declarative transaction management for POJOs</desc><g id="shadow8-59" class="st4" transform="matrix(1,0,0,1,1.8,1.8)"><rect width="144" height="14.4" x="0" y="244.799" class="st5"/></g><rect width="144" height="14.4" x="0" y="244.799" class="st6"/><text x="8.31" y="253.8" class="st7">Declarative transaction management for POJOs</text></g><g id="shape14-63" transform="translate(114,-107.999)"><title>Box.14</title><desc>Custom business logic</desc><g id="shadow14-64" class="st4" transform="matrix(1,0,0,1,1.8,1.8)"><rect width="144" height="14.4" x="0" y="244.799" class="st5"/></g><rect width="144" height="14.4" x="0" y="244.799" class="st6"/><text x="41.99" y="253.8" class="st7">Custom business logic</text></g><g id="shape16-68" transform="translate(0.24,-107.999)"><title>Box.16</title><desc>Sending Email</desc><g id="shadow16-69" class="st4" transform="matrix(1,0,0,1,1.8,1.8)"><rect width="46.08" height="54.72" x="0" y="204.479" class="st5"/></g><rect width="46.08" height="54.72" x="0" y="204.479" class="st6"/><text x="12.04" y="230.04" class="st7">Sending <tspan x="15.55" class="st8" dy="1.2em">Email</tspan></text></g><g id="shape17-74" transform="translate(309.84,-107.999)"><title>Box.17</title><desc>Remote access via Hession or SOAP</desc><g id="shadow17-75" class="st4" transform="matrix(1,0,0,1,1.8,1.8)"><rect width="46.08" height="54.72" x="0" y="204.479" class="st5"/></g><rect width="46.08" height="54.72" x="0" y="204.479" class="st6"/><text x="12.55" y="222.84" class="st7">Remote <tspan x="9.04" class="st8" dy="1.2em">access via</tspan><tspan x="11.38" class="st8" dy="1.2em">Hession</tspan>, SOAP</text></g><g id="shape18-82" transform="translate(114,-172.799)"><title>Box.18</title><desc>WebApplicationContext providing e.g. messaging</desc><g id="shadow18-83" class="st4" transform="matrix(1,0,0,1,1.8,1.8)"><rect width="144" height="14.4" x="0" y="244.799" class="st5"/></g><rect width="144" height="14.4" x="0" y="244.799" class="st6"/><text x="6.63" y="253.8" class="st7">WebApplicationContext providing e.g. messaging</text></g></g></svg>