<svg xmlns="http://www.w3.org/2000/svg" xmlns:svg="http://www.w3.org/2000/svg" id="svg5499" width="621.394" height="571.416" class="st5" version="1.1" viewBox="0 0 466.046 428.562" xml:space="preserve" style="font-size:12px;overflow:visible;color-interpolation-filters:sRGB;fill:none;fill-rule:evenodd;stroke-linecap:square;stroke-miterlimit:3"><metadata id="metadata5713"/><defs id="defs5711"><marker style="overflow:visible" id="marker9162" orient="auto" refX="0" refY="0"><path style="fill-rule:evenodd;stroke-width:.625;stroke-linejoin:round;stroke:#000;stroke-opacity:1;fill:#000;fill-opacity:1" id="path9164" d="M 8.7185878,4.0337352 L -2.2072895,0.016013256 L 8.7185884,-4.0017078 C 6.9730900,-1.6296469 6.9831476,1.6157441 8.7185878,4.0337352 z" transform="scale(0.6) rotate(180) translate(0,0)"/></marker><marker style="overflow:visible" id="marker8834" orient="auto" refX="0" refY="0"><path style="fill-rule:evenodd;stroke-width:.625;stroke-linejoin:round;stroke:#000;stroke-opacity:1;fill:#000;fill-opacity:1" id="path8836" d="M 8.7185878,4.0337352 L -2.2072895,0.016013256 L 8.7185884,-4.0017078 C 6.9730900,-1.6296469 6.9831476,1.6157441 8.7185878,4.0337352 z" transform="scale(0.6) rotate(180) translate(0,0)"/></marker><marker style="overflow:visible" id="marker8518" orient="auto" refX="0" refY="0"><path style="fill-rule:evenodd;stroke-width:.625;stroke-linejoin:round;stroke:#000;stroke-opacity:1;fill:#000;fill-opacity:1" id="path8520" d="M 8.7185878,4.0337352 L -2.2072895,0.016013256 L 8.7185884,-4.0017078 C 6.9730900,-1.6296469 6.9831476,1.6157441 8.7185878,4.0337352 z" transform="scale(0.6) rotate(180) translate(0,0)"/></marker><marker style="overflow:visible" id="marker8214" orient="auto" refX="0" refY="0"><path style="fill-rule:evenodd;stroke-width:.625;stroke-linejoin:round;stroke:#000;stroke-opacity:1;fill:#000;fill-opacity:1" id="path8216" d="M 8.7185878,4.0337352 L -2.2072895,0.016013256 L 8.7185884,-4.0017078 C 6.9730900,-1.6296469 6.9831476,1.6157441 8.7185878,4.0337352 z" transform="scale(0.6) rotate(180) translate(0,0)"/></marker><marker style="overflow:visible" id="marker7922" orient="auto" refX="0" refY="0"><path style="fill-rule:evenodd;stroke-width:.625;stroke-linejoin:round;stroke:#000;stroke-opacity:1;fill:#000;fill-opacity:1" id="path7924" d="M 8.7185878,4.0337352 L -2.2072895,0.016013256 L 8.7185884,-4.0017078 C 6.9730900,-1.6296469 6.9831476,1.6157441 8.7185878,4.0337352 z" transform="scale(0.6) rotate(180) translate(0,0)"/></marker><marker style="overflow:visible" id="marker7641" orient="auto" refX="0" refY="0"><path style="fill-rule:evenodd;stroke-width:.625;stroke-linejoin:round;stroke:#000;stroke-opacity:1;fill:#000;fill-opacity:1" id="path7644" d="M 8.7185878,4.0337352 L -2.2072895,0.016013256 L 8.7185884,-4.0017078 C 6.9730900,-1.6296469 6.9831476,1.6157441 8.7185878,4.0337352 z" transform="scale(0.6) rotate(180) translate(0,0)"/></marker><marker style="overflow:visible" id="marker7373" orient="auto" refX="0" refY="0"><path style="fill-rule:evenodd;stroke-width:.625;stroke-linejoin:round;stroke:#000;stroke-opacity:1;fill:#000;fill-opacity:1" id="path7375" d="M 8.7185878,4.0337352 L -2.2072895,0.016013256 L 8.7185884,-4.0017078 C 6.9730900,-1.6296469 6.9831476,1.6157441 8.7185878,4.0337352 z" transform="scale(0.6) rotate(180) translate(0,0)"/></marker><marker style="overflow:visible" id="marker7117" orient="auto" refX="0" refY="0"><path style="fill-rule:evenodd;stroke-width:.625;stroke-linejoin:round;stroke:#000;stroke-opacity:1;fill:#000;fill-opacity:1" id="path7119" d="M 8.7185878,4.0337352 L -2.2072895,0.016013256 L 8.7185884,-4.0017078 C 6.9730900,-1.6296469 6.9831476,1.6157441 8.7185878,4.0337352 z" transform="scale(0.6) rotate(180) translate(0,0)"/></marker><marker style="overflow:visible" id="marker6873" orient="auto" refX="0" refY="0"><path style="fill-rule:evenodd;stroke-width:.625;stroke-linejoin:round;stroke:#000;stroke-opacity:1;fill:#000;fill-opacity:1" id="path6875" d="M 8.7185878,4.0337352 L -2.2072895,0.016013256 L 8.7185884,-4.0017078 C 6.9730900,-1.6296469 6.9831476,1.6157441 8.7185878,4.0337352 z" transform="scale(0.6) rotate(180) translate(0,0)"/></marker><marker style="overflow:visible" id="marker6641" orient="auto" refX="0" refY="0"><path style="fill-rule:evenodd;stroke-width:.625;stroke-linejoin:round;stroke:#000;stroke-opacity:1;fill:#000;fill-opacity:1" id="path6643" d="M 8.7185878,4.0337352 L -2.2072895,0.016013256 L 8.7185884,-4.0017078 C 6.9730900,-1.6296469 6.9831476,1.6157441 8.7185878,4.0337352 z" transform="scale(0.6) rotate(180) translate(0,0)"/></marker><marker style="overflow:visible" id="marker6421" orient="auto" refX="0" refY="0"><path style="fill-rule:evenodd;stroke-width:.625;stroke-linejoin:round;stroke:#000;stroke-opacity:1;fill:#000;fill-opacity:1" id="path6423" d="M 8.7185878,4.0337352 L -2.2072895,0.016013256 L 8.7185884,-4.0017078 C 6.9730900,-1.6296469 6.9831476,1.6157441 8.7185878,4.0337352 z" transform="scale(0.6) rotate(180) translate(0,0)"/></marker><marker style="overflow:visible" id="marker6213" orient="auto" refX="0" refY="0"><path style="fill-rule:evenodd;stroke-width:.625;stroke-linejoin:round;stroke:#000;stroke-opacity:1;fill:#000;fill-opacity:1" id="path6215" d="M 8.7185878,4.0337352 L -2.2072895,0.016013256 L 8.7185884,-4.0017078 C 6.9730900,-1.6296469 6.9831476,1.6157441 8.7185878,4.0337352 z" transform="scale(0.6) rotate(180) translate(0,0)"/></marker><marker style="overflow:visible" id="marker6017" orient="auto" refX="0" refY="0"><path style="fill-rule:evenodd;stroke-width:.625;stroke-linejoin:round;stroke:#000;stroke-opacity:1;fill:#000;fill-opacity:1" id="path6019" d="M 8.7185878,4.0337352 L -2.2072895,0.016013256 L 8.7185884,-4.0017078 C 6.9730900,-1.6296469 6.9831476,1.6157441 8.7185878,4.0337352 z" transform="scale(0.6) rotate(180) translate(0,0)"/></marker><marker style="overflow:visible" id="marker5833" orient="auto" refX="0" refY="0"><path style="fill-rule:evenodd;stroke-width:.625;stroke-linejoin:round;stroke:#000;stroke-opacity:1;fill:#000;fill-opacity:1" id="path5835" d="M 8.7185878,4.0337352 L -2.2072895,0.016013256 L 8.7185884,-4.0017078 C 6.9730900,-1.6296469 6.9831476,1.6157441 8.7185878,4.0337352 z" transform="scale(0.6) rotate(180) translate(0,0)"/></marker><marker style="overflow:visible" id="marker5661" orient="auto" refX="0" refY="0"><path style="fill-rule:evenodd;stroke-width:.625;stroke-linejoin:round;stroke:#000;stroke-opacity:1;fill:#000;fill-opacity:1" id="path5663" d="M 8.7185878,4.0337352 L -2.2072895,0.016013256 L 8.7185884,-4.0017078 C 6.9730900,-1.6296469 6.9831476,1.6157441 8.7185878,4.0337352 z" transform="scale(0.6) rotate(180) translate(0,0)"/></marker><marker style="overflow:visible" id="marker5501" orient="auto" refX="0" refY="0"><path style="fill-rule:evenodd;stroke-width:.625;stroke-linejoin:round;stroke:#000;stroke-opacity:1;fill:#000;fill-opacity:1" id="path5503" d="M 8.7185878,4.0337352 L -2.2072895,0.016013256 L 8.7185884,-4.0017078 C 6.9730900,-1.6296469 6.9831476,1.6157441 8.7185878,4.0337352 z" transform="scale(0.6) rotate(180) translate(0,0)"/></marker><marker style="overflow:visible" id="marker5353" orient="auto" refX="0" refY="0"><path style="fill-rule:evenodd;stroke-width:.625;stroke-linejoin:round;stroke:#000;stroke-opacity:1;fill:#000;fill-opacity:1" id="path5355" d="M 8.7185878,4.0337352 L -2.2072895,0.016013256 L 8.7185884,-4.0017078 C 6.9730900,-1.6296469 6.9831476,1.6157441 8.7185878,4.0337352 z" transform="scale(0.6) rotate(180) translate(0,0)"/></marker><marker style="overflow:visible" id="marker5217" orient="auto" refX="0" refY="0"><path style="fill-rule:evenodd;stroke-width:.625;stroke-linejoin:round;stroke:#000;stroke-opacity:1;fill:#000;fill-opacity:1" id="path5219" d="M 8.7185878,4.0337352 L -2.2072895,0.016013256 L 8.7185884,-4.0017078 C 6.9730900,-1.6296469 6.9831476,1.6157441 8.7185878,4.0337352 z" transform="scale(0.6) rotate(180) translate(0,0)"/></marker><marker style="overflow:visible" id="marker5093" orient="auto" refX="0" refY="0"><path style="fill-rule:evenodd;stroke-width:.625;stroke-linejoin:round;stroke:#000;stroke-opacity:1;fill:#000;fill-opacity:1" id="path5095" d="M 8.7185878,4.0337352 L -2.2072895,0.016013256 L 8.7185884,-4.0017078 C 6.9730900,-1.6296469 6.9831476,1.6157441 8.7185878,4.0337352 z" transform="scale(0.6) rotate(180) translate(0,0)"/></marker><marker style="overflow:visible" id="marker4981" orient="auto" refX="0" refY="0"><path style="fill-rule:evenodd;stroke-width:.625;stroke-linejoin:round;stroke:#000;stroke-opacity:1;fill:#000;fill-opacity:1" id="path4983" d="M 8.7185878,4.0337352 L -2.2072895,0.016013256 L 8.7185884,-4.0017078 C 6.9730900,-1.6296469 6.9831476,1.6157441 8.7185878,4.0337352 z" transform="scale(0.6) rotate(180) translate(0,0)"/></marker><marker id="Arrow2Mend" orient="auto" refX="0" refY="0" style="overflow:visible"><path id="path7394" d="M 8.7185878,4.0337352 L -2.2072895,0.016013256 L 8.7185884,-4.0017078 C 6.9730900,-1.6296469 6.9831476,1.6157441 8.7185878,4.0337352 z" transform="scale(0.6) rotate(180) translate(0,0)" style="fill-rule:evenodd;stroke-width:.625;stroke-linejoin:round;stroke:#000;stroke-opacity:1;fill:#000;fill-opacity:1"/></marker><marker id="marker8121" orient="auto" refX="0" refY="0" style="overflow:visible"><path id="path8123" d="M 8.7185878,4.0337352 L -2.2072895,0.016013256 L 8.7185884,-4.0017078 C 6.9730900,-1.6296469 6.9831476,1.6157441 8.7185878,4.0337352 z" transform="scale(1.1) rotate(180) translate(1,0)" style="fill-rule:evenodd;stroke-width:.625;stroke-linejoin:round;stroke:#000;stroke-opacity:1;fill:#000;fill-opacity:1"/></marker><marker id="marker8033" orient="auto" refX="0" refY="0" style="overflow:visible"><path id="path8035" d="M 0.0,0.0 L 5.0,-5.0 L -12.5,0.0 L 5.0,5.0 L 0.0,0.0 z" transform="scale(0.4) rotate(180) translate(10,0)" style="fill-rule:evenodd;stroke:#000;stroke-width:1pt;stroke-opacity:1;fill:#000;fill-opacity:1"/></marker><marker id="marker7957" orient="auto" refX="0" refY="0" style="overflow:visible"><path id="path7959" d="M 0.0,0.0 L 5.0,-5.0 L -12.5,0.0 L 5.0,5.0 L 0.0,0.0 z" transform="scale(0.4) rotate(180) translate(10,0)" style="fill-rule:evenodd;stroke:#000;stroke-width:1pt;stroke-opacity:1;fill:#000;fill-opacity:1"/></marker><marker id="Arrow1Mend" orient="auto" refX="0" refY="0" style="overflow:visible"><path id="path7376" d="M 0.0,0.0 L 5.0,-5.0 L -12.5,0.0 L 5.0,5.0 L 0.0,0.0 z" transform="scale(0.4) rotate(180) translate(10,0)" style="fill-rule:evenodd;stroke:#000;stroke-width:1pt;stroke-opacity:1;fill:#000;fill-opacity:1"/></marker><marker id="Arrow2Lend" orient="auto" refX="0" refY="0" style="overflow:visible"><path id="path7388" d="M 8.7185878,4.0337352 L -2.2072895,0.016013256 L 8.7185884,-4.0017078 C 6.9730900,-1.6296469 6.9831476,1.6157441 8.7185878,4.0337352 z" transform="scale(1.1) rotate(180) translate(1,0)" style="fill-rule:evenodd;stroke-width:.625;stroke-linejoin:round;stroke:#000;stroke-opacity:1"/></marker><marker id="Arrow1Lend" orient="auto" refX="0" refY="0" style="overflow:visible"><path id="path7370" d="M 0.0,0.0 L 5.0,-5.0 L -12.5,0.0 L 5.0,5.0 L 0.0,0.0 z" transform="scale(0.8) rotate(180) translate(12.5,0)" style="fill-rule:evenodd;stroke:#000;stroke-width:1pt;stroke-opacity:1;fill:#000;fill-opacity:1"/></marker></defs><style id="style5501" type="text/css">.st5{fill:none;fill-rule:evenodd;font-size:12;overflow:visible;stroke-linecap:square;stroke-miterlimit:3}</style><g id="g5503" transform="matrix(0.99998201,0,0,1.0824094,-40.812382,-98.908648)"><rect style="fill:#dde2cd;fill-opacity:1;stroke:#000;stroke-width:1.53790233;stroke-miterlimit:3;stroke-dasharray:none;stroke-opacity:1" id="rect6599" width="382.684" height="146.099" x="87.885" y="148.265"/><rect style="fill:none;fill-opacity:1;stroke:#000;stroke-width:1.53790233;stroke-miterlimit:3;stroke-dasharray:none;stroke-opacity:1" id="rect5725" width="464.311" height="374.114" x="41.684" y="112.326"/><title id="title5505">Page-1</title><rect style="fill:#dde2cd;fill-opacity:1;fill-rule:evenodd;stroke:#000;stroke-width:1.53790233;stroke-linecap:butt;stroke-linejoin:miter;stroke-miterlimit:3;stroke-dasharray:none;stroke-opacity:1" id="rect5715" width="322.819" height="43.632" x="119.953" y="-135.662" transform="scale(1,-1)"/><text style="font-style:normal;font-variant:normal;font-weight:400;font-stretch:normal;font-size:30.7580471px;line-height:125%;font-family:sans-serif;-inkscape-font-specification:sans-serif;letter-spacing:0;word-spacing:0;fill:#000;fill-opacity:1;stroke:none;stroke-width:1px;stroke-linecap:butt;stroke-linejoin:miter;stroke-opacity:1" id="text5717" x="168.843" y="124.324" transform="scale(1.0403984,0.96117025)" xml:space="preserve"><tspan id="tspan5719" x="168.843" y="124.324" style="font-style:normal;font-variant:normal;font-weight:400;font-stretch:normal;font-size:23.06853676px;font-family:sans-serif;-inkscape-font-specification:sans-serif">DispatcherServlet</tspan></text><text style="font-style:normal;font-weight:400;font-size:30.7580471px;line-height:125%;font-family:Sans;letter-spacing:0;word-spacing:0;fill:#000;fill-opacity:1;stroke:none;stroke-width:1px;stroke-linecap:butt;stroke-linejoin:miter;stroke-opacity:1" id="text6589" x="89.771" y="181.209" transform="scale(1.0403984,0.96117025)" xml:space="preserve"><tspan id="tspan6591" x="89.771" y="181.209" style="font-style:normal;font-variant:normal;font-weight:400;font-stretch:normal;font-size:23.06853676px;font-family:sans-serif;-inkscape-font-specification:sans-serif">Servlet WebApplicationContext</tspan></text><text style="font-style:normal;font-weight:400;font-size:30.7580471px;line-height:125%;font-family:Sans;letter-spacing:0;word-spacing:0;fill:#000;fill-opacity:1;stroke:none;stroke-width:1px;stroke-linecap:butt;stroke-linejoin:miter;stroke-opacity:1" id="text6593" x="260.004" y="198.413" transform="scale(1.0403984,0.96117025)" xml:space="preserve"><tspan id="tspan6595" x="260.004" y="198.413" style="font-style:normal;font-variant:normal;font-weight:400;font-stretch:normal;font-size:11.53426838px;font-family:sans-serif;-inkscape-font-specification:sans-serif;text-align:center;text-anchor:middle">(containing controllers, view resolvers,</tspan><tspan style="font-style:normal;font-variant:normal;font-weight:400;font-stretch:normal;font-size:11.53426838px;font-family:sans-serif;-inkscape-font-specification:sans-serif;text-align:center;text-anchor:middle" id="tspan6597" x="260.004" y="212.831">and other web-related beans)</tspan></text><rect style="fill:#fff;fill-opacity:1;stroke:#000;stroke-width:.86203903;stroke-miterlimit:3;stroke-dasharray:none;stroke-opacity:1" id="rect6620" width="82.041" height="36.726" x="114.527" y="-259.432" transform="scale(1,-1)"/><rect style="fill:#fff;fill-opacity:1;stroke:#000;stroke-width:.89166164;stroke-miterlimit:3;stroke-dasharray:none;stroke-opacity:1" id="rect6622" width="87.844" height="36.697" x="223.399" y="-287.198" transform="scale(1,-1)"/><rect id="rect6614" width="82.041" height="36.726" x="117.928" y="-264.819" transform="scale(1,-1)" style="fill:#fff;fill-opacity:1;stroke:#000;stroke-width:.86203903;stroke-miterlimit:3;stroke-dasharray:none;stroke-opacity:1"/><text style="font-style:normal;font-weight:400;font-size:30.7580471px;line-height:125%;font-family:Sans;letter-spacing:0;word-spacing:0;fill:#000;fill-opacity:1;stroke:none;stroke-width:1px;stroke-linecap:butt;stroke-linejoin:miter;stroke-opacity:1" id="text6616" x="121.247" y="260.15" transform="scale(1.0403984,0.96117025)" xml:space="preserve"><tspan id="tspan6618" x="121.247" y="260.15" style="font-size:11.53426838px">Controllers</tspan></text><text id="text6624" x="219.612" y="282.707" transform="scale(1.0403984,0.96117025)" xml:space="preserve" style="font-style:normal;font-weight:400;font-size:30.7580471px;line-height:125%;font-family:Sans;letter-spacing:0;word-spacing:0;fill:#000;fill-opacity:1;stroke:none;stroke-width:1px;stroke-linecap:butt;stroke-linejoin:miter;stroke-opacity:1"><tspan style="font-size:11.53426838px" id="tspan6626" x="219.612" y="282.707">ViewResolver</tspan></text><rect id="rect6628" width="114.454" height="36.578" x="332.541" y="-259.302" transform="scale(1,-1)" style="fill:#fff;fill-opacity:1;stroke:#000;stroke-width:1.0161339;stroke-miterlimit:3;stroke-dasharray:none;stroke-opacity:1"/><text style="font-style:normal;font-weight:400;font-size:30.7580471px;line-height:125%;font-family:Sans;letter-spacing:0;word-spacing:0;fill:#000;fill-opacity:1;stroke:none;stroke-width:1px;stroke-linecap:butt;stroke-linejoin:miter;stroke-opacity:1" id="text6630" x="327.513" y="255.285" transform="scale(1.0403984,0.96117025)" xml:space="preserve"><tspan id="tspan6632" x="327.513" y="255.285" style="font-size:11.53426838px">HandlerMapping</tspan></text><rect id="rect6634" width="382.847" height="121.568" x="87.803" y="338.697" style="fill:#dde2cd;fill-opacity:1;stroke:#000;stroke-width:1.53790233;stroke-miterlimit:3;stroke-dasharray:none;stroke-opacity:1"/><text id="text6636" x="108.614" y="376.617" transform="scale(1.0403984,0.96117025)" xml:space="preserve" style="font-style:normal;font-weight:400;font-size:30.7580471px;line-height:125%;font-family:Sans;letter-spacing:0;word-spacing:0;fill:#000;fill-opacity:1;stroke:none;stroke-width:1px;stroke-linecap:butt;stroke-linejoin:miter;stroke-opacity:1"><tspan style="font-style:normal;font-variant:normal;font-weight:400;font-stretch:normal;font-size:23.06853676px;font-family:sans-serif;-inkscape-font-specification:sans-serif" id="tspan6638" x="108.614" y="376.617">Root WebApplicationContext</tspan></text><text id="text6640" x="260.939" y="395.358" transform="scale(1.0403984,0.96117025)" xml:space="preserve" style="font-style:normal;font-weight:400;font-size:30.7580471px;line-height:125%;font-family:Sans;letter-spacing:0;word-spacing:0;fill:#000;fill-opacity:1;stroke:none;stroke-width:1px;stroke-linecap:butt;stroke-linejoin:miter;stroke-opacity:1"><tspan id="tspan6644" x="260.939" y="395.358" style="font-style:normal;font-variant:normal;font-weight:400;font-stretch:normal;font-size:11.53426838px;font-family:sans-serif;-inkscape-font-specification:sans-serif;text-align:center;text-anchor:middle">(containing middle-tier services, datasources, etc.)</tspan></text><rect id="rect6648" width="82.041" height="36.726" x="164.329" y="-440.068" transform="scale(1,-1)" style="fill:#fff;fill-opacity:1;stroke:#000;stroke-width:.86203903;stroke-miterlimit:3;stroke-dasharray:none;stroke-opacity:1"/><rect style="fill:#fff;fill-opacity:1;stroke:#000;stroke-width:.86203903;stroke-miterlimit:3;stroke-dasharray:none;stroke-opacity:1" id="rect6650" width="82.041" height="36.726" x="167.731" y="-445.456" transform="scale(1,-1)"/><text id="text6652" x="175.871" y="448.551" transform="scale(1.0403984,0.96117025)" xml:space="preserve" style="font-style:normal;font-weight:400;font-size:30.7580471px;line-height:125%;font-family:Sans;letter-spacing:0;word-spacing:0;fill:#000;fill-opacity:1;stroke:none;stroke-width:1px;stroke-linecap:butt;stroke-linejoin:miter;stroke-opacity:1"><tspan style="font-size:11.53426838px" id="tspan6654" x="175.871" y="448.551">Services</tspan></text><rect style="fill:#fff;fill-opacity:1;stroke:#000;stroke-width:.88435173;stroke-miterlimit:3;stroke-dasharray:none;stroke-opacity:1" id="rect6656" width="86.393" height="36.704" x="306.863" y="-439.608" transform="scale(1,-1)"/><rect id="rect6658" width="86.877" height="36.702" x="310.266" y="-444.995" transform="scale(1,-1)" style="fill:#fff;fill-opacity:1;stroke:#000;stroke-width:.88679528;stroke-miterlimit:3;stroke-dasharray:none;stroke-opacity:1"/><text style="font-style:normal;font-weight:400;font-size:30.7580471px;line-height:125%;font-family:Sans;letter-spacing:0;word-spacing:0;fill:#000;fill-opacity:1;stroke:none;stroke-width:1px;stroke-linecap:butt;stroke-linejoin:miter;stroke-opacity:1" id="text6660" x="305.308" y="448.551" transform="scale(1.0403984,0.96117025)" xml:space="preserve"><tspan id="tspan6662" x="305.308" y="448.551" style="font-size:11.53426838px">Repositories</tspan></text><path style="fill:none;fill-rule:evenodd;stroke:#000;stroke-width:.76895118px;stroke-linecap:butt;stroke-linejoin:miter;stroke-opacity:1" id="path7643" d="m 265.33234,295.60379 c 0,42.65169 0,42.65169 0,0 z"/><path style="fill:#000;fill-opacity:1;fill-rule:evenodd;stroke:#000;stroke-width:3.46028023;stroke-linecap:butt;stroke-linejoin:miter;stroke-miterlimit:3;stroke-dasharray:none;stroke-opacity:1;marker-end:url(#Arrow2Mend)" id="path7645" d="m 270.43505,294.70585 c 0,39.4721 0,39.87903 0,39.87903"/><text style="font-style:normal;font-weight:400;font-size:30.7580471px;line-height:125%;font-family:Sans;letter-spacing:0;word-spacing:0;fill:#000;fill-opacity:1;stroke:none;stroke-width:1px;stroke-linecap:butt;stroke-linejoin:miter;stroke-opacity:1" id="text4963" x="352.553" y="333.036" transform="scale(1.0403984,0.96117025)" xml:space="preserve"><tspan style="font-style:normal;font-variant:normal;font-weight:400;font-stretch:normal;font-size:11.53426838px;font-family:sans-serif;-inkscape-font-specification:sans-serif;text-align:center;text-anchor:middle" id="tspan4965" x="352.553" y="333.036">Delegates if no bean found</tspan></text></g></svg>