<svg xmlns="http://www.w3.org/2000/svg" xmlns:svg="http://www.w3.org/2000/svg" id="svg5499" width="621.394" height="571.416" fill="none" fill-rule="evenodd" stroke-linecap="square" stroke-miterlimit="3" class="st5" color-interpolation-filters="sRGB" font-size="12" overflow="visible" version="1.1" viewBox="0 0 466.046 428.562" xml:space="preserve"><metadata id="metadata5713"/><defs id="defs5711"><marker id="marker9162" orient="auto" overflow="visible" refX="0" refY="0"><path id="path9164" fill="#000" fill-opacity="1" fill-rule="evenodd" stroke="#000" stroke-linejoin="round" stroke-opacity="1" stroke-width=".625" d="M 8.7185878,4.0337352 L -2.2072895,0.016013256 L 8.7185884,-4.0017078 C 6.9730900,-1.6296469 6.9831476,1.6157441 8.7185878,4.0337352 z" transform="scale(0.6) rotate(180) translate(0,0)"/></marker><marker id="marker8834" orient="auto" overflow="visible" refX="0" refY="0"><path id="path8836" fill="#000" fill-opacity="1" fill-rule="evenodd" stroke="#000" stroke-linejoin="round" stroke-opacity="1" stroke-width=".625" d="M 8.7185878,4.0337352 L -2.2072895,0.016013256 L 8.7185884,-4.0017078 C 6.9730900,-1.6296469 6.9831476,1.6157441 8.7185878,4.0337352 z" transform="scale(0.6) rotate(180) translate(0,0)"/></marker><marker id="marker8518" orient="auto" overflow="visible" refX="0" refY="0"><path id="path8520" fill="#000" fill-opacity="1" fill-rule="evenodd" stroke="#000" stroke-linejoin="round" stroke-opacity="1" stroke-width=".625" d="M 8.7185878,4.0337352 L -2.2072895,0.016013256 L 8.7185884,-4.0017078 C 6.9730900,-1.6296469 6.9831476,1.6157441 8.7185878,4.0337352 z" transform="scale(0.6) rotate(180) translate(0,0)"/></marker><marker id="marker8214" orient="auto" overflow="visible" refX="0" refY="0"><path id="path8216" fill="#000" fill-opacity="1" fill-rule="evenodd" stroke="#000" stroke-linejoin="round" stroke-opacity="1" stroke-width=".625" d="M 8.7185878,4.0337352 L -2.2072895,0.016013256 L 8.7185884,-4.0017078 C 6.9730900,-1.6296469 6.9831476,1.6157441 8.7185878,4.0337352 z" transform="scale(0.6) rotate(180) translate(0,0)"/></marker><marker id="marker7922" orient="auto" overflow="visible" refX="0" refY="0"><path id="path7924" fill="#000" fill-opacity="1" fill-rule="evenodd" stroke="#000" stroke-linejoin="round" stroke-opacity="1" stroke-width=".625" d="M 8.7185878,4.0337352 L -2.2072895,0.016013256 L 8.7185884,-4.0017078 C 6.9730900,-1.6296469 6.9831476,1.6157441 8.7185878,4.0337352 z" transform="scale(0.6) rotate(180) translate(0,0)"/></marker><marker id="marker7641" orient="auto" overflow="visible" refX="0" refY="0"><path id="path7644" fill="#000" fill-opacity="1" fill-rule="evenodd" stroke="#000" stroke-linejoin="round" stroke-opacity="1" stroke-width=".625" d="M 8.7185878,4.0337352 L -2.2072895,0.016013256 L 8.7185884,-4.0017078 C 6.9730900,-1.6296469 6.9831476,1.6157441 8.7185878,4.0337352 z" transform="scale(0.6) rotate(180) translate(0,0)"/></marker><marker id="marker7373" orient="auto" overflow="visible" refX="0" refY="0"><path id="path7375" fill="#000" fill-opacity="1" fill-rule="evenodd" stroke="#000" stroke-linejoin="round" stroke-opacity="1" stroke-width=".625" d="M 8.7185878,4.0337352 L -2.2072895,0.016013256 L 8.7185884,-4.0017078 C 6.9730900,-1.6296469 6.9831476,1.6157441 8.7185878,4.0337352 z" transform="scale(0.6) rotate(180) translate(0,0)"/></marker><marker id="marker7117" orient="auto" overflow="visible" refX="0" refY="0"><path id="path7119" fill="#000" fill-opacity="1" fill-rule="evenodd" stroke="#000" stroke-linejoin="round" stroke-opacity="1" stroke-width=".625" d="M 8.7185878,4.0337352 L -2.2072895,0.016013256 L 8.7185884,-4.0017078 C 6.9730900,-1.6296469 6.9831476,1.6157441 8.7185878,4.0337352 z" transform="scale(0.6) rotate(180) translate(0,0)"/></marker><marker id="marker6873" orient="auto" overflow="visible" refX="0" refY="0"><path id="path6875" fill="#000" fill-opacity="1" fill-rule="evenodd" stroke="#000" stroke-linejoin="round" stroke-opacity="1" stroke-width=".625" d="M 8.7185878,4.0337352 L -2.2072895,0.016013256 L 8.7185884,-4.0017078 C 6.9730900,-1.6296469 6.9831476,1.6157441 8.7185878,4.0337352 z" transform="scale(0.6) rotate(180) translate(0,0)"/></marker><marker id="marker6641" orient="auto" overflow="visible" refX="0" refY="0"><path id="path6643" fill="#000" fill-opacity="1" fill-rule="evenodd" stroke="#000" stroke-linejoin="round" stroke-opacity="1" stroke-width=".625" d="M 8.7185878,4.0337352 L -2.2072895,0.016013256 L 8.7185884,-4.0017078 C 6.9730900,-1.6296469 6.9831476,1.6157441 8.7185878,4.0337352 z" transform="scale(0.6) rotate(180) translate(0,0)"/></marker><marker id="marker6421" orient="auto" overflow="visible" refX="0" refY="0"><path id="path6423" fill="#000" fill-opacity="1" fill-rule="evenodd" stroke="#000" stroke-linejoin="round" stroke-opacity="1" stroke-width=".625" d="M 8.7185878,4.0337352 L -2.2072895,0.016013256 L 8.7185884,-4.0017078 C 6.9730900,-1.6296469 6.9831476,1.6157441 8.7185878,4.0337352 z" transform="scale(0.6) rotate(180) translate(0,0)"/></marker><marker id="marker6213" orient="auto" overflow="visible" refX="0" refY="0"><path id="path6215" fill="#000" fill-opacity="1" fill-rule="evenodd" stroke="#000" stroke-linejoin="round" stroke-opacity="1" stroke-width=".625" d="M 8.7185878,4.0337352 L -2.2072895,0.016013256 L 8.7185884,-4.0017078 C 6.9730900,-1.6296469 6.9831476,1.6157441 8.7185878,4.0337352 z" transform="scale(0.6) rotate(180) translate(0,0)"/></marker><marker id="marker6017" orient="auto" overflow="visible" refX="0" refY="0"><path id="path6019" fill="#000" fill-opacity="1" fill-rule="evenodd" stroke="#000" stroke-linejoin="round" stroke-opacity="1" stroke-width=".625" d="M 8.7185878,4.0337352 L -2.2072895,0.016013256 L 8.7185884,-4.0017078 C 6.9730900,-1.6296469 6.9831476,1.6157441 8.7185878,4.0337352 z" transform="scale(0.6) rotate(180) translate(0,0)"/></marker><marker id="marker5833" orient="auto" overflow="visible" refX="0" refY="0"><path id="path5835" fill="#000" fill-opacity="1" fill-rule="evenodd" stroke="#000" stroke-linejoin="round" stroke-opacity="1" stroke-width=".625" d="M 8.7185878,4.0337352 L -2.2072895,0.016013256 L 8.7185884,-4.0017078 C 6.9730900,-1.6296469 6.9831476,1.6157441 8.7185878,4.0337352 z" transform="scale(0.6) rotate(180) translate(0,0)"/></marker><marker id="marker5661" orient="auto" overflow="visible" refX="0" refY="0"><path id="path5663" fill="#000" fill-opacity="1" fill-rule="evenodd" stroke="#000" stroke-linejoin="round" stroke-opacity="1" stroke-width=".625" d="M 8.7185878,4.0337352 L -2.2072895,0.016013256 L 8.7185884,-4.0017078 C 6.9730900,-1.6296469 6.9831476,1.6157441 8.7185878,4.0337352 z" transform="scale(0.6) rotate(180) translate(0,0)"/></marker><marker id="marker5501" orient="auto" overflow="visible" refX="0" refY="0"><path id="path5503" fill="#000" fill-opacity="1" fill-rule="evenodd" stroke="#000" stroke-linejoin="round" stroke-opacity="1" stroke-width=".625" d="M 8.7185878,4.0337352 L -2.2072895,0.016013256 L 8.7185884,-4.0017078 C 6.9730900,-1.6296469 6.9831476,1.6157441 8.7185878,4.0337352 z" transform="scale(0.6) rotate(180) translate(0,0)"/></marker><marker id="marker5353" orient="auto" overflow="visible" refX="0" refY="0"><path id="path5355" fill="#000" fill-opacity="1" fill-rule="evenodd" stroke="#000" stroke-linejoin="round" stroke-opacity="1" stroke-width=".625" d="M 8.7185878,4.0337352 L -2.2072895,0.016013256 L 8.7185884,-4.0017078 C 6.9730900,-1.6296469 6.9831476,1.6157441 8.7185878,4.0337352 z" transform="scale(0.6) rotate(180) translate(0,0)"/></marker><marker id="marker5217" orient="auto" overflow="visible" refX="0" refY="0"><path id="path5219" fill="#000" fill-opacity="1" fill-rule="evenodd" stroke="#000" stroke-linejoin="round" stroke-opacity="1" stroke-width=".625" d="M 8.7185878,4.0337352 L -2.2072895,0.016013256 L 8.7185884,-4.0017078 C 6.9730900,-1.6296469 6.9831476,1.6157441 8.7185878,4.0337352 z" transform="scale(0.6) rotate(180) translate(0,0)"/></marker><marker id="marker5093" orient="auto" overflow="visible" refX="0" refY="0"><path id="path5095" fill="#000" fill-opacity="1" fill-rule="evenodd" stroke="#000" stroke-linejoin="round" stroke-opacity="1" stroke-width=".625" d="M 8.7185878,4.0337352 L -2.2072895,0.016013256 L 8.7185884,-4.0017078 C 6.9730900,-1.6296469 6.9831476,1.6157441 8.7185878,4.0337352 z" transform="scale(0.6) rotate(180) translate(0,0)"/></marker><marker id="marker4981" orient="auto" overflow="visible" refX="0" refY="0"><path id="path4983" fill="#000" fill-opacity="1" fill-rule="evenodd" stroke="#000" stroke-linejoin="round" stroke-opacity="1" stroke-width=".625" d="M 8.7185878,4.0337352 L -2.2072895,0.016013256 L 8.7185884,-4.0017078 C 6.9730900,-1.6296469 6.9831476,1.6157441 8.7185878,4.0337352 z" transform="scale(0.6) rotate(180) translate(0,0)"/></marker><marker id="Arrow2Mend" orient="auto" overflow="visible" refX="0" refY="0"><path id="path7394" fill="#000" fill-opacity="1" fill-rule="evenodd" stroke="#000" stroke-linejoin="round" stroke-opacity="1" stroke-width=".625" d="M 8.7185878,4.0337352 L -2.2072895,0.016013256 L 8.7185884,-4.0017078 C 6.9730900,-1.6296469 6.9831476,1.6157441 8.7185878,4.0337352 z" transform="scale(0.6) rotate(180) translate(0,0)"/></marker><marker id="marker8121" orient="auto" overflow="visible" refX="0" refY="0"><path id="path8123" fill="#000" fill-opacity="1" fill-rule="evenodd" stroke="#000" stroke-linejoin="round" stroke-opacity="1" stroke-width=".625" d="M 8.7185878,4.0337352 L -2.2072895,0.016013256 L 8.7185884,-4.0017078 C 6.9730900,-1.6296469 6.9831476,1.6157441 8.7185878,4.0337352 z" transform="scale(1.1) rotate(180) translate(1,0)"/></marker><marker id="marker8033" orient="auto" overflow="visible" refX="0" refY="0"><path id="path8035" fill="#000" fill-opacity="1" fill-rule="evenodd" stroke="#000" stroke-opacity="1" stroke-width="1pt" d="M 0.0,0.0 L 5.0,-5.0 L -12.5,0.0 L 5.0,5.0 L 0.0,0.0 z" transform="scale(0.4) rotate(180) translate(10,0)"/></marker><marker id="marker7957" orient="auto" overflow="visible" refX="0" refY="0"><path id="path7959" fill="#000" fill-opacity="1" fill-rule="evenodd" stroke="#000" stroke-opacity="1" stroke-width="1pt" d="M 0.0,0.0 L 5.0,-5.0 L -12.5,0.0 L 5.0,5.0 L 0.0,0.0 z" transform="scale(0.4) rotate(180) translate(10,0)"/></marker><marker id="Arrow1Mend" orient="auto" overflow="visible" refX="0" refY="0"><path id="path7376" fill="#000" fill-opacity="1" fill-rule="evenodd" stroke="#000" stroke-opacity="1" stroke-width="1pt" d="M 0.0,0.0 L 5.0,-5.0 L -12.5,0.0 L 5.0,5.0 L 0.0,0.0 z" transform="scale(0.4) rotate(180) translate(10,0)"/></marker><marker id="Arrow2Lend" orient="auto" overflow="visible" refX="0" refY="0"><path id="path7388" fill-rule="evenodd" stroke="#000" stroke-linejoin="round" stroke-opacity="1" stroke-width=".625" d="M 8.7185878,4.0337352 L -2.2072895,0.016013256 L 8.7185884,-4.0017078 C 6.9730900,-1.6296469 6.9831476,1.6157441 8.7185878,4.0337352 z" transform="scale(1.1) rotate(180) translate(1,0)"/></marker><marker id="Arrow1Lend" orient="auto" overflow="visible" refX="0" refY="0"><path id="path7370" fill="#000" fill-opacity="1" fill-rule="evenodd" stroke="#000" stroke-opacity="1" stroke-width="1pt" d="M 0.0,0.0 L 5.0,-5.0 L -12.5,0.0 L 5.0,5.0 L 0.0,0.0 z" transform="scale(0.8) rotate(180) translate(12.5,0)"/></marker></defs><style id="style5501" type="text/css">.st5{fill:none;fill-rule:evenodd;font-size:12;overflow:visible;stroke-linecap:square;stroke-miterlimit:3}</style><g id="g5503" transform="matrix(0.99998201,0,0,1.0824094,-40.812382,-98.908648)"><rect id="rect6599" width="382.684" height="146.099" x="87.885" y="148.265" fill="#dde2cd" fill-opacity="1" stroke="#000" stroke-dasharray="none" stroke-miterlimit="3" stroke-opacity="1" stroke-width="1.538"/><rect id="rect5725" width="464.311" height="374.114" x="41.684" y="112.326" fill="none" fill-opacity="1" stroke="#000" stroke-dasharray="none" stroke-miterlimit="3" stroke-opacity="1" stroke-width="1.538"/><title id="title5505">Page-1</title><rect id="rect5715" width="322.819" height="43.632" x="119.953" y="-135.662" fill="#dde2cd" fill-opacity="1" fill-rule="evenodd" stroke="#000" stroke-dasharray="none" stroke-linecap="butt" stroke-linejoin="miter" stroke-miterlimit="3" stroke-opacity="1" stroke-width="1.538" transform="scale(1,-1)"/><text id="text5717" x="168.843" y="124.324" fill="#000" fill-opacity="1" stroke="none" stroke-linecap="butt" stroke-linejoin="miter" stroke-opacity="1" stroke-width="1" font-family="sans-serif" font-size="30.758" font-stretch="normal" font-style="normal" font-variant="normal" font-weight="normal" letter-spacing="0" transform="scale(1.0403984,0.96117025)" word-spacing="0" xml:space="preserve" style="line-height:125%;-inkscape-font-specification:sans-serif"><tspan style="-inkscape-font-specification:sans-serif" id="tspan5719" x="168.843" y="124.324" font-family="sans-serif" font-size="23.069" font-stretch="normal" font-style="normal" font-variant="normal" font-weight="normal">DispatcherServlet</tspan></text><text id="text6589" x="89.771" y="181.209" fill="#000" fill-opacity="1" stroke="none" stroke-linecap="butt" stroke-linejoin="miter" stroke-opacity="1" stroke-width="1" font-family="Sans" font-size="30.758" font-style="normal" font-weight="normal" letter-spacing="0" transform="scale(1.0403984,0.96117025)" word-spacing="0" xml:space="preserve" style="line-height:125%"><tspan style="-inkscape-font-specification:sans-serif" id="tspan6591" x="89.771" y="181.209" font-family="sans-serif" font-size="23.069" font-stretch="normal" font-style="normal" font-variant="normal" font-weight="normal">Servlet WebApplicationContext</tspan></text><text id="text6593" x="260.004" y="198.413" fill="#000" fill-opacity="1" stroke="none" stroke-linecap="butt" stroke-linejoin="miter" stroke-opacity="1" stroke-width="1" font-family="Sans" font-size="30.758" font-style="normal" font-weight="normal" letter-spacing="0" transform="scale(1.0403984,0.96117025)" word-spacing="0" xml:space="preserve" style="line-height:125%"><tspan id="tspan6595" x="260.004" y="198.413" font-family="sans-serif" font-size="11.534" font-stretch="normal" font-style="normal" font-variant="normal" font-weight="normal" text-anchor="middle" style="-inkscape-font-specification:sans-serif;text-align:center">(containing controllers, view resolvers,</tspan><tspan id="tspan6597" x="260.004" y="212.831" font-family="sans-serif" font-size="11.534" font-stretch="normal" font-style="normal" font-variant="normal" font-weight="normal" text-anchor="middle" style="-inkscape-font-specification:sans-serif;text-align:center">and other web-related beans)</tspan></text><rect id="rect6620" width="82.041" height="36.726" x="114.527" y="-259.432" fill="#fff" fill-opacity="1" stroke="#000" stroke-dasharray="none" stroke-miterlimit="3" stroke-opacity="1" stroke-width=".862" transform="scale(1,-1)"/><rect id="rect6622" width="87.844" height="36.697" x="223.399" y="-287.198" fill="#fff" fill-opacity="1" stroke="#000" stroke-dasharray="none" stroke-miterlimit="3" stroke-opacity="1" stroke-width=".892" transform="scale(1,-1)"/><rect id="rect6614" width="82.041" height="36.726" x="117.928" y="-264.819" fill="#fff" fill-opacity="1" stroke="#000" stroke-dasharray="none" stroke-miterlimit="3" stroke-opacity="1" stroke-width=".862" transform="scale(1,-1)"/><text id="text6616" x="121.247" y="260.15" fill="#000" fill-opacity="1" stroke="none" stroke-linecap="butt" stroke-linejoin="miter" stroke-opacity="1" stroke-width="1" font-family="Sans" font-size="30.758" font-style="normal" font-weight="normal" letter-spacing="0" transform="scale(1.0403984,0.96117025)" word-spacing="0" xml:space="preserve" style="line-height:125%"><tspan id="tspan6618" x="121.247" y="260.15" font-size="11.534">Controllers</tspan></text><text id="text6624" x="219.612" y="282.707" fill="#000" fill-opacity="1" stroke="none" stroke-linecap="butt" stroke-linejoin="miter" stroke-opacity="1" stroke-width="1" font-family="Sans" font-size="30.758" font-style="normal" font-weight="normal" letter-spacing="0" transform="scale(1.0403984,0.96117025)" word-spacing="0" xml:space="preserve" style="line-height:125%"><tspan id="tspan6626" x="219.612" y="282.707" font-size="11.534">ViewResolver</tspan></text><rect id="rect6628" width="114.454" height="36.578" x="332.541" y="-259.302" fill="#fff" fill-opacity="1" stroke="#000" stroke-dasharray="none" stroke-miterlimit="3" stroke-opacity="1" stroke-width="1.016" transform="scale(1,-1)"/><text id="text6630" x="327.513" y="255.285" fill="#000" fill-opacity="1" stroke="none" stroke-linecap="butt" stroke-linejoin="miter" stroke-opacity="1" stroke-width="1" font-family="Sans" font-size="30.758" font-style="normal" font-weight="normal" letter-spacing="0" transform="scale(1.0403984,0.96117025)" word-spacing="0" xml:space="preserve" style="line-height:125%"><tspan id="tspan6632" x="327.513" y="255.285" font-size="11.534">HandlerMapping</tspan></text><rect id="rect6634" width="382.847" height="121.568" x="87.803" y="338.697" fill="#dde2cd" fill-opacity="1" stroke="#000" stroke-dasharray="none" stroke-miterlimit="3" stroke-opacity="1" stroke-width="1.538"/><text id="text6636" x="108.614" y="376.617" fill="#000" fill-opacity="1" stroke="none" stroke-linecap="butt" stroke-linejoin="miter" stroke-opacity="1" stroke-width="1" font-family="Sans" font-size="30.758" font-style="normal" font-weight="normal" letter-spacing="0" transform="scale(1.0403984,0.96117025)" word-spacing="0" xml:space="preserve" style="line-height:125%"><tspan id="tspan6638" x="108.614" y="376.617" font-family="sans-serif" font-size="23.069" font-stretch="normal" font-style="normal" font-variant="normal" font-weight="normal" style="-inkscape-font-specification:sans-serif">Root WebApplicationContext</tspan></text><text id="text6640" x="260.939" y="395.358" fill="#000" fill-opacity="1" stroke="none" stroke-linecap="butt" stroke-linejoin="miter" stroke-opacity="1" stroke-width="1" font-family="Sans" font-size="30.758" font-style="normal" font-weight="normal" letter-spacing="0" transform="scale(1.0403984,0.96117025)" word-spacing="0" xml:space="preserve" style="line-height:125%"><tspan id="tspan6644" x="260.939" y="395.358" font-family="sans-serif" font-size="11.534" font-stretch="normal" font-style="normal" font-variant="normal" font-weight="normal" text-anchor="middle" style="-inkscape-font-specification:sans-serif;text-align:center">(containing middle-tier services, datasources, etc.)</tspan></text><rect id="rect6648" width="82.041" height="36.726" x="164.329" y="-440.068" fill="#fff" fill-opacity="1" stroke="#000" stroke-dasharray="none" stroke-miterlimit="3" stroke-opacity="1" stroke-width=".862" transform="scale(1,-1)"/><rect id="rect6650" width="82.041" height="36.726" x="167.731" y="-445.456" fill="#fff" fill-opacity="1" stroke="#000" stroke-dasharray="none" stroke-miterlimit="3" stroke-opacity="1" stroke-width=".862" transform="scale(1,-1)"/><text id="text6652" x="175.871" y="448.551" fill="#000" fill-opacity="1" stroke="none" stroke-linecap="butt" stroke-linejoin="miter" stroke-opacity="1" stroke-width="1" font-family="Sans" font-size="30.758" font-style="normal" font-weight="normal" letter-spacing="0" transform="scale(1.0403984,0.96117025)" word-spacing="0" xml:space="preserve" style="line-height:125%"><tspan id="tspan6654" x="175.871" y="448.551" font-size="11.534">Services</tspan></text><rect id="rect6656" width="86.393" height="36.704" x="306.863" y="-439.608" fill="#fff" fill-opacity="1" stroke="#000" stroke-dasharray="none" stroke-miterlimit="3" stroke-opacity="1" stroke-width=".884" transform="scale(1,-1)"/><rect id="rect6658" width="86.877" height="36.702" x="310.266" y="-444.995" fill="#fff" fill-opacity="1" stroke="#000" stroke-dasharray="none" stroke-miterlimit="3" stroke-opacity="1" stroke-width=".887" transform="scale(1,-1)"/><text id="text6660" x="305.308" y="448.551" fill="#000" fill-opacity="1" stroke="none" stroke-linecap="butt" stroke-linejoin="miter" stroke-opacity="1" stroke-width="1" font-family="Sans" font-size="30.758" font-style="normal" font-weight="normal" letter-spacing="0" transform="scale(1.0403984,0.96117025)" word-spacing="0" xml:space="preserve" style="line-height:125%"><tspan id="tspan6662" x="305.308" y="448.551" font-size="11.534">Repositories</tspan></text><path id="path7643" fill="none" fill-rule="evenodd" stroke="#000" stroke-linecap="butt" stroke-linejoin="miter" stroke-opacity="1" stroke-width=".769" d="m 265.33234,295.60379 c 0,42.65169 0,42.65169 0,0 z"/><path id="path7645" fill="#000" fill-opacity="1" fill-rule="evenodd" stroke="#000" stroke-dasharray="none" stroke-linecap="butt" stroke-linejoin="miter" stroke-miterlimit="3" stroke-opacity="1" stroke-width="3.46" marker-end="url(#Arrow2Mend)" d="m 270.43505,294.70585 c 0,39.4721 0,39.87903 0,39.87903"/><text id="text4963" x="352.553" y="333.036" fill="#000" fill-opacity="1" stroke="none" stroke-linecap="butt" stroke-linejoin="miter" stroke-opacity="1" stroke-width="1" font-family="Sans" font-size="30.758" font-style="normal" font-weight="normal" letter-spacing="0" transform="scale(1.0403984,0.96117025)" word-spacing="0" xml:space="preserve" style="line-height:125%"><tspan id="tspan4965" x="352.553" y="333.036" font-family="sans-serif" font-size="11.534" font-stretch="normal" font-style="normal" font-variant="normal" font-weight="normal" text-anchor="middle" style="-inkscape-font-specification:sans-serif;text-align:center">Delegates if no bean found</tspan></text></g></svg>