<svg xmlns="http://www.w3.org/2000/svg" width="451.84" height="254.72" class="st9" color-interpolation-filters="sRGB" viewBox="0 0 338.88 191.04" xml:space="preserve"><style type="text/css">.st1{fill:#f4f7f0;stroke:#000;stroke-linecap:round;stroke-linejoin:round;stroke-width:.24}.st2{fill:#000;font-family:Arial;font-size:.75em}.st3{fill:#ecefe2;stroke:#000;stroke-linecap:round;stroke-linejoin:round;stroke-width:.24}.st4{visibility:visible}.st5,.st6{fill:#84877b;stroke:#84877b;stroke-linecap:round;stroke-linejoin:round;stroke-width:.24}.st6{fill:#dde2cd;stroke:#000}.st7{fill:#000;font-family:Arial;font-size:.666664em}.st8{font-size:1em}.st9{fill:none;fill-rule:evenodd;font-size:12;overflow:visible;stroke-linecap:square;stroke-miterlimit:3}</style><g><title>Page-1</title><g id="shape1-1" transform="translate(0.240333,-10.8)"><title>Box.1</title><desc>Servlet Container (e.g. Tomcat / Jetty)</desc><rect width="338.4" height="129.6" x="0" y="61.44" class="st1"/><text x="93.17" y="177.54" class="st2">Servlet Container (e.g. Tomcat / Jetty)</text></g><g id="shape2-4" transform="translate(12.326,-37.8001)"><title>Box.2</title><desc>Spring Core</desc><rect width="157.114" height="64.8" x="0" y="126.24" class="st3"/><text x="54.54" y="177.54" class="st2">Spring Core</text></g><g id="shape3-7" transform="translate(169.44,-37.8001)"><title>Box.3</title><desc>Spring Context</desc><rect width="157.114" height="64.8" x="0" y="126.24" class="st3"/><text x="48.78" y="177.54" class="st2">Spring Context</text></g><g id="shape4-10" transform="translate(8.09603,-151.2)"><title>Box.10</title><desc>JAX RPC client</desc><g id="shadow4-11" class="st4" transform="matrix(1,0,0,1,1.8,1.8)"><rect width="76.744" height="39.6" x="0" y="151.44" class="st5"/></g><rect width="76.744" height="39.6" x="0" y="151.44" class="st6"/><text x="11.03" y="173.64" class="st7">JAX RPC client</text></g><g id="shape5-15" transform="translate(18.9732,-97.2)"><title>Box.4</title><desc>Transprarent remote access (using remote package)</desc><g id="shadow5-16" class="st4" transform="matrix(1,0,0,1,1.8,1.8)"><rect width="300.934" height="28.8" x="0" y="162.24" class="st5"/></g><rect width="300.934" height="28.8" x="0" y="162.24" class="st6"/><text x="58.65" y="179.04" class="st7">Transp<tspan class="st8">ar</tspan>ent remote access (using remote package)</text></g><g id="shape6-21" transform="translate(18.9732,-68.4)"><title>Box</title><desc>Custom logic contained by beans</desc><g id="shadow6-22" class="st4" transform="matrix(1,0,0,1,1.8,1.8)"><rect width="300.934" height="28.8" x="0" y="162.24" class="st5"/></g><rect width="300.934" height="28.8" x="0" y="162.24" class="st6"/><text x="91.55" y="179.04" class="st7">Custom logic contained by beans</text></g><g id="shape7-26" transform="translate(96.9259,-151.2)"><title>Box.5</title><desc>Hessian client</desc><g id="shadow7-27" class="st4" transform="matrix(1,0,0,1,1.8,1.8)"><rect width="72.212" height="39.6" x="0" y="151.44" class="st5"/></g><rect width="72.212" height="39.6" x="0" y="151.44" class="st6"/><text x="11.2" y="173.64" class="st7">Hessian client</text></g><g id="shape9-36" transform="translate(266.126,-151.2)"><title>Box.7</title><desc>RMI client</desc><g id="shadow9-37" class="st4" transform="matrix(1,0,0,1,1.8,1.8)"><rect width="67.378" height="39.6" x="0" y="151.44" class="st5"/></g><rect width="67.378" height="39.6" x="0" y="151.44" class="st6"/><text x="26.37" y="168.84" class="st7">RMI<tspan x="24.36" class="st8" dy="1.2em">client</tspan></text></g></g></svg>