<svg xmlns="http://www.w3.org/2000/svg" width="471.04" height="316.068" class="st9" color-interpolation-filters="sRGB" viewBox="0 0 353.28 237.051" xml:space="preserve"><style type="text/css">.st1{fill:#f4f7f0;stroke:#000;stroke-linecap:round;stroke-linejoin:round;stroke-width:.24}.st2{fill:#000;font-family:Arial;font-size:.833336em}.st3{fill:#ecefe2;stroke:#000;stroke-linecap:round;stroke-linejoin:round;stroke-width:.24}.st4{visibility:visible}.st5,.st6{fill:#84877b;stroke:#84877b;stroke-linecap:round;stroke-linejoin:round;stroke-width:.24}.st6{fill:#dde2cd;stroke:#000}.st7{fill:#000;font-family:Arial;font-size:.75em}.st8{font-size:1em}.st9{fill:none;fill-rule:evenodd;font-size:12;overflow:visible;stroke-linecap:square;stroke-miterlimit:3}</style><g><title>Page-1</title><g id="shape11-1" transform="translate(0.24,-0.24)"><title>Box.11</title><desc>Servlet Container (Tomcat / Jetty)</desc><rect width="352.8" height="236.571" x="0" y=".48" class="st1"/><text x="101.65" y="223.77" class="st2">Servlet Container (Tomcat / Jetty)</text></g><g id="shape6-4" transform="translate(12.84,-25.9543)"><title>Box.6</title><desc>Spring Core</desc><rect width="163.8" height="61.714" x="0" y="175.337" class="st3"/><text x="55.22" y="221.19" class="st2">Spring Core</text></g><g id="shape7-7" transform="translate(176.64,-25.9543)"><title>Box.7</title><desc>Spring DAO</desc><rect width="163.8" height="61.714" x="0" y="175.337" class="st3"/><text x="55.22" y="221.19" class="st2">Spring DAO</text></g><g id="shape8-10" transform="translate(176.64,-87.6686)"><title>Box.8</title><desc>Spring ORM</desc><rect width="163.8" height="61.714" x="0" y="175.337" class="st3"/><text x="54.39" y="197.19" class="st2">Spring ORM</text></g><g id="shape9-13" transform="translate(12.84,-149.383)"><title>Box.9</title><desc>Spring WEB</desc><rect width="327.6" height="61.714" x="0" y="175.337" class="st3"/><text x="136.57" y="221.19" class="st2">Spring WEB</text></g><g id="shape10-16" transform="translate(107.34,-188.811)"><title>Box.10</title><desc>Web frontend using Struts or WebWork</desc><g id="shadow10-17" class="st4" transform="matrix(1,0,0,1,1.8,1.8)"><rect width="144.9" height="37.714" x="0" y="199.337" class="st5"/></g><rect width="144.9" height="37.714" x="0" y="199.337" class="st6"/><text x="33.43" y="215.49" class="st7">Web frontend using<tspan x="34.44" class="st8" dy="1.2em">Struts or WebWork</tspan></text></g><g id="shape12-22" transform="translate(12.84,-87.6686)"><title>Box.12</title><desc>Spring AOP</desc><rect width="163.8" height="61.714" x="0" y="175.337" class="st3"/><text x="55.5" y="197.19" class="st2">Spring AOP</text></g><g id="shape13-25" transform="translate(107.34,-94.5257)"><title>Box.13</title><desc>Transaction management Using Spring decl. trans.</desc><g id="shadow13-26" class="st4" transform="matrix(1,0,0,1,1.8,1.8)"><rect width="144.9" height="27.429" x="0" y="209.623" class="st5"/></g><rect width="144.9" height="27.429" x="0" y="209.623" class="st6"/><text x="21.42" y="220.64" class="st7">Transaction management<tspan x="23.43" class="st8" dy="1.2em">Using Spring decl</tspan>. trans.</text></g><g id="shape5-31" transform="translate(107.34,-67.0971)"><title>Box</title><desc>Hibernate mappings Custom Hibernate DAOs</desc><g id="shadow5-32" class="st4" transform="matrix(1,0,0,1,1.8,1.8)"><rect width="144.9" height="27.429" x="0" y="209.623" class="st5"/></g><rect width="144.9" height="27.429" x="0" y="209.623" class="st6"/><text x="32.18" y="220.64" class="st7">Hibernate mappings<tspan x="22.93" class="st8" dy="1.2em">Custom Hibernate DAOs</tspan></text></g></g></svg>